<?xml version="1.0" standalone="no"?><!DOCTYPE svg PUBLIC "-//W3C//DTD SVG 1.1//EN" "http://www.w3.org/Graphics/SVG/1.1/DTD/svg11.dtd"><svg xmlns:xlink="http://www.w3.org/1999/xlink" version="1.1" style="font-family:'lucida grande', 'lucida sans unicode', arial, helvetica, sans-serif;font-size:12px;" xmlns="http://www.w3.org/2000/svg" width="600" height="400"><desc>Created with Highcharts 4.1.3</desc><defs><clipPath id="highcharts-14"><rect x="0" y="0" width="509" height="225"></rect></clipPath></defs><rect x="0" y="0" width="600" height="400" strokeWidth="0" fill="#FFFFFF" class=" highcharts-background"></rect><path fill="none" d="M 80.5 53 L 80.5 278" stroke="grey" stroke-width="1"></path><path fill="none" d="M 81 98.5 L 590 98.5" stroke="grey" stroke-width="1"></path><g class="highcharts-grid" ></g><g class="highcharts-grid" ></g><g class="highcharts-axis" ><path fill="none" d="M 80.5 278 L 80.5 288" stroke="#C0D0E0" stroke-width="1" opacity="1"></path><path fill="none" d="M 165.5 278 L 165.5 288" stroke="#C0D0E0" stroke-width="1" opacity="1"></path><path fill="none" d="M 250.5 278 L 250.5 288" stroke="#C0D0E0" stroke-width="1" opacity="1"></path><path fill="none" d="M 335.5 278 L 335.5 288" stroke="#C0D0E0" stroke-width="1" opacity="1"></path><path fill="none" d="M 419.5 278 L 419.5 288" stroke="#C0D0E0" stroke-width="1" opacity="1"></path><path fill="none" d="M 504.5 278 L 504.5 288" stroke="#C0D0E0" stroke-width="1" opacity="1"></path><path fill="none" d="M 590.5 278 L 590.5 288" stroke="#C0D0E0" stroke-width="1" opacity="1"></path><text x="335.5"  text-anchor="middle" transform="translate(0,0)" class=" highcharts-xaxis-title" style="color:#707070;fill:#707070;" visibility="visible" y="319.8125"><tspan>Elution Time in Reference Map (minutes)</tspan></text></g><g class="highcharts-axis" ><text x="28.515625"  text-anchor="middle" transform="translate(0,0) rotate(270 28.515625 165.5)" class=" highcharts-yaxis-title" style="color:#707070;fill:#707070;" visibility="visible" y="165.5"><tspan>Delta Time vs. Refer ence Map (seconds)</tspan></text></g><g class="highcharts-series-group" ><g class="highcharts-series" visibility="visible"  transform="translate(81,53) scale(1 1)" clip-path="url(#highcharts-14)"><path fill="none" d="M 37.49633333333333 81 C 37.49633333333333 81 43.60433333333333 88.92419825072885 47.67633333333333 99 C 49.423899999999996 103.32419825072886 50.297683333333325 111.45532710280372 52.045249999999996 117 C 53.928549999999994 122.97532710280373 54.8702 127.8 56.753499999999995 127.8 C 58.0769 127.8 58.7386 126.62748603351956 60.062 126 C 61.775633333333325 125.18748603351956 62.63244999999999 124.2 64.34608333333333 124.2 C 65.78824999999999 124.2 66.50933333333333 125.97313432835821 67.9515 127.8 C 69.91963333333334 130.29313432835824 70.9037 130.68000000000004 72.87183333333333 135 C 74.83996666666667 139.32000000000002 75.82403333333332 144.3263551401869 77.79216666666666 149.39999999999998 C 79.4549 153.6863551401869 80.28626666666666 154.09352112676052 81.949 158.39999999999998 C 83.90016666666665 163.45352112676053 84.87575 166.20895522388062 86.82691666666665 172.8 C 88.28604999999997 177.7289552238806 89.01561666666666 187.2 90.47474999999999 187.2 C 92.08658333333332 187.2 92.8925 183.51000000000002 94.50433333333334 181.8 C 96.28583333333333 179.91000000000003 97.17658333333333 178.2 98.95808333333332 178.2 C 100.90925 178.2 101.88483333333332 179.87441860465117 103.836 181.8 C 105.53266666666666 183.47441860465116 106.381 185.8968325791855 108.07766666666666 187.2 C 110.13063333333332 188.7768325791855 111.15711666666667 189 113.21008333333333 189 C 115.53451666666665 189 116.6967333333333 183.6 119.02116666666664 183.6 C 120.78569999999998 183.6 121.66796666666664 194.2086075949367 123.43249999999999 198 C 125.68906666666666 202.84860759493668 126.81734999999999 205.2 129.07391666666666 205.2 C 130.56698333333333 205.2 131.31351666666666 199.83652173913043 132.80658333333332 198 C 134.82561666666666 195.51652173913044 135.83513333333332 194.4 137.85416666666666 194.4 C 139.58476666666667 194.4 140.4500666666667 198 142.18066666666667 198 C 144.1997 198 145.2092166666667 198 147.22825 198 C 149.07761666666664 198 150.00229999999996 203.4 151.85166666666663 203.4 C 153.8707 203.4 154.88021666666663 203.4 156.89925 201.6 C 158.54501666666664 199.79999999999998 159.36790000000002 183.6 161.01366666666667 183.6 C 162.7782 183.6 163.66046666666665 183.6 165.42499999999998 183.6 C 167.01986666666667 183.6 167.8173 183.6 169.41216666666665 183.6 C 171.02399999999997 183.6 171.82991666666666 185.6903225806452 173.44174999999998 189 C 174.98571666666666 192.17032258064518 175.75769999999997 199.8 177.30166666666665 199.8 C 179.13406666666666 199.8 180.0502666666667 196.54018348623853 181.88266666666667 194.4 C 183.74899999999997 192.22018348623854 184.68216666666663 189 186.54849999999996 189 C 188.4657333333333 189 189.42434999999995 189.4151489361702 191.34158333333332 190.8 C 193.41151666666664 192.2951489361702 194.4464833333333 196.2 196.51641666666663 196.2 C 197.9585833333333 196.2 198.6796666666666 192.6 200.1218333333333 192.6 C 201.6658 192.6 202.43778333333333 194.72764044943818 203.98175 196.2 C 205.45785 197.60764044943818 206.1959 199.8 207.672 199.8 C 209.0802333333333 199.8 209.78435 199.06082840236687 211.19258333333332 198 C 212.65171666666666 196.90082840236687 213.3812833333333 195.48631578947368 214.84041666666664 194.4 C 216.28258333333332 193.32631578947368 217.00366666666665 193.54639175257734 218.44583333333333 192.6 C 220.29519999999997 191.38639175257734 221.21988333333329 190.2936263736264 223.06924999999998 189 C 224.3078166666666 188.1336263736264 224.92709999999997 187.2 226.16566666666665 187.2 C 227.9641333333333 187.2 228.86336666666665 190.8 230.66183333333333 190.8 C 231.9004 190.8 232.51968333333335 189 233.75824999999998 189 C 235.04771666666664 189 235.69244999999995 190.8 236.98191666666662 190.8 C 238.47498333333328 190.8 239.22151666666664 183.6 240.7145833333333 183.6 C 242.17371666666662 183.6 242.90328333333332 184.33241379310348 244.36241666666663 185.4 C 245.85548333333332 186.49241379310348 246.60201666666663 189 248.09508333333332 189 C 249.75781666666663 189 250.58918333333332 185.2128 252.25191666666663 183.6 C 253.55834999999996 182.3328 254.2115666666666 182.43000000000004 255.51799999999997 181.8 C 257.1977 180.99 258.03755 180.8008988764045 259.71725 180 C 261.05761666666666 179.3608988764045 261.72779999999995 179.16954545454544 263.0681666666666 178.2 C 264.7139333333333 177.00954545454545 265.5368166666666 175.78372881355932 267.1825833333333 174.6 C 268.5399166666666 173.62372881355932 269.2185833333333 173.91483870967744 270.5759166666666 172.8 C 271.8484166666666 171.75483870967741 272.4846666666666 169.2 273.75716666666665 169.2 C 275.2332666666666 169.2 275.97131666666667 169.2 277.44741666666664 169.2 C 278.60114999999996 169.2 279.1780166666666 169.2 280.33175 169.2 C 281.8248166666666 169.2 282.57135 169.88188235294118 284.06441666666666 171 C 285.4556833333333 172.04188235294117 286.1513166666667 174.6 287.5425833333333 174.6 C 288.9168833333333 174.6 289.60403333333335 174.6 290.9783333333333 172.8 C 292.6580333333333 171.00000000000003 293.4978833333333 167.69508196721313 295.1775833333333 163.8 C 296.6027833333333 160.4950819672131 297.31538333333333 154.8 298.74058333333335 154.8 C 300.23365 154.8 300.98018333333334 158.54352941176467 302.47325 160.2 C 303.57608333333326 161.42352941176463 304.12749999999994 162 305.23033333333325 162 C 306.21439999999996 162 306.7064333333333 156.83707317073174 307.6905 154.8 C 308.79333333333335 152.51707317073172 309.3447499999999 151.2 310.4475833333333 151.2 C 311.5504166666666 151.2 312.1018333333333 153 313.20466666666664 153 C 314.9352666666667 153 315.80056666666667 153 317.53116666666665 153 C 318.7188333333333 153 319.3126666666666 145.8 320.5003333333333 145.8 C 322.0782333333333 145.8 322.8671833333333 146.41835294117647 324.4450833333333 147.6 C 325.7515166666666 148.57835294117646 326.4047333333333 150.09119999999996 327.71116666666666 151.2 C 328.94973333333326 152.25119999999995 329.56901666666664 153 330.8075833333333 153 C 331.9613166666667 153 332.5381833333333 142.19999999999996 333.69191666666666 140.39999999999998 C 334.96441666666664 138.6 335.6006666666666 138.6 336.87316666666663 138.6 C 337.97599999999994 138.6 338.5274166666666 144 339.63024999999993 144 C 340.9197166666666 144 341.56444999999997 141.61606299212602 342.85391666666663 138.6 C 343.7192166666666 136.576062992126 344.1518666666667 134.7688073394494 345.01716666666664 131.39999999999998 C 346.0012333333333 127.5688073394494 346.49326666666667 124.65436893203875 347.4773333333333 120.6 C 348.24083333333334 117.45436893203875 348.6225833333333 115.19999999999999 349.3860833333333 113.39999999999999 C 350.2344166666667 111.6 350.6585833333333 113.39999999999999 351.50691666666665 111.6 C 352.42311666666666 109.8 352.88121666666666 104.13509433962246 353.7974166666666 99 C 354.6796833333333 94.05509433962246 355.12081666666666 86.4 356.00308333333334 86.4 C 356.97018333333335 86.4 357.4537333333333 88.50763636363634 358.4208333333333 90 C 359.3200666666666 91.38763636363633 359.7696833333333 93.6 360.66891666666663 93.6 C 361.5511833333333 93.6 361.9923166666666 88.9444660194175 362.8745833333333 86.4 C 363.7398833333333 83.90446601941751 364.17253333333326 83.13902912621363 365.0378333333333 81 C 365.9201 78.81902912621364 366.3612333333333 75.6 367.2435 75.6 C 368.22756666666663 75.6 368.7196 75.6 369.7036666666666 75.6 C 370.5350333333333 75.6 370.9507166666666 75.6 371.78208333333333 75.6 C 372.6813166666667 75.6 373.13093333333336 70.19999999999999 374.0301666666667 70.19999999999999 C 374.7258 70.19999999999999 375.0736166666667 70.19999999999999 375.76925 70.19999999999999 C 376.6175833333333 70.19999999999999 377.04175000000004 70.19999999999999 377.89008333333334 70.19999999999999 C 378.80628333333334 70.19999999999999 379.2643833333333 70.19999999999999 380.1805833333333 70.19999999999999 C 381.04588333333334 70.19999999999999 381.4785333333333 66.6 382.3438333333333 66.6 C 383.4127333333333 66.6 383.9471833333333 66.6 385.01608333333326 66.6 C 385.94924999999995 66.6 386.4158333333333 64.79999999999998 387.34899999999993 64.79999999999998 C 388.50273333333325 64.79999999999998 389.0795999999999 64.79999999999998 390.2333333333333 64.79999999999998 C 391.1834666666666 64.79999999999998 391.65853333333337 63.6664462809917 392.60866666666664 63 C 393.7115 62.2264462809917 394.2629166666666 61.903759398496206 395.36574999999993 61.19999999999999 C 396.5194833333333 60.46375939849621 397.0963499999999 60.603934426229536 398.2500833333333 59.400000000000006 C 399.1662833333333 58.443934426229525 399.6243833333333 55.79999999999998 400.5405833333333 55.79999999999998 C 401.67734999999993 55.79999999999998 402.2457333333333 56.8690909090909 403.38249999999994 57.599999999999994 C 404.48533333333324 58.30909090909091 405.0367499999999 59.400000000000006 406.1395833333333 59.400000000000006 C 407.0388166666666 59.400000000000006 407.4884333333333 59.400000000000006 408.38766666666663 59.400000000000006 C 409.6432 59.400000000000006 410.2709666666666 59.400000000000006 411.52649999999994 59.400000000000006 C 412.74809999999997 59.400000000000006 413.3588999999999 57.599999999999994 414.5804999999999 57.599999999999994 C 415.97176666666655 57.599999999999994 416.66739999999993 57.599999999999994 418.0586666666666 57.599999999999994 C 420.00983333333335 57.599999999999994 420.9854166666666 54 422.93658333333326 54 C 424.88775 54 425.86333333333334 54 427.81449999999995 54 C 431.02119999999996 54 432.6245499999999 52.22412868632712 435.83124999999995 50.400000000000006 C 438.9531166666666 48.62412868632711 440.51404999999994 45 443.6359166666666 45 C 448.06421666666665 45 450.2783666666666 45 454.70666666666665 45 C 457.86246666666665 45 459.4403666666666 43.19999999999999 462.59616666666665 43.19999999999999 C 466.753 43.19999999999999 472.98825 43.19999999999999 472.98825 43.19999999999999" stroke="#8085e9" stroke-width="2"  stroke-linejoin="round" stroke-linecap="round"></path></g><g class="highcharts-markers" visibility="visible"  transform="translate(81,53) scale(1 1)" clip-path="none"></g><g class="highcharts-series" visibility="visible"  transform="translate(81,53) scale(1 1)" clip-path="url(#highcharts-14)"><path fill="none" d="M 36.30866666666667 81 C 36.30866666666667 81 42.59481666666666 88.74305084745762 46.78558333333333 100.8 C 48.60101666666666 106.02305084745763 49.508733333333325 117.44210526315788 51.32416666666666 124.2 C 53.37713333333333 131.8421052631579 54.403616666666665 136.8 56.45658333333333 136.8 C 57.661216666666654 136.8 58.26353333333333 134.08137931034483 59.46816666666666 133.2 C 61.21573333333333 131.92137931034478 62.08951666666667 131.39999999999998 63.83708333333333 131.39999999999998 C 64.97385 131.39999999999998 65.54223333333333 143.99999999999994 66.679 149.39999999999998 C 68.88466666666666 154.8 69.9875 154.8 72.19316666666666 154.8 C 73.9068 154.8 74.76361666666666 154.8 76.47725 154.8 C 78.46234999999999 154.8 79.45489999999998 161.14678414096915 81.43999999999998 165.6 C 83.30633333333331 169.78678414096913 84.23949999999999 169.2 86.10583333333332 176.4 C 87.78553333333332 182.88 88.62538333333332 199.8 90.30508333333331 199.8 C 91.86601666666665 199.8 92.64648333333332 192.07298969072164 94.20741666666666 189 C 95.93801666666666 185.59298969072165 96.80331666666666 183.6 98.53391666666666 183.6 C 100.19665 183.6 101.02801666666667 189 102.69075 189 C 104.33651666666665 189 105.15939999999998 187.2 106.80516666666665 187.2 C 108.43396666666665 187.2 109.24836666666666 190.88910891089108 110.87716666666665 192.6 C 112.67563333333332 194.48910891089108 113.57486666666664 194.54086956521738 115.37333333333332 196.2 C 117.4772 198.14086956521737 118.52913333333333 198.02880000000002 120.633 201.6 C 122.34663333333333 204.5088 123.20345 212.4 124.91708333333332 212.4 C 127.08881666666666 212.4 128.17468333333335 208.22873239436618 130.34641666666667 205.2 C 131.78858333333332 203.18873239436618 132.50966666666667 199.8 133.95183333333333 199.8 C 136.03873333333334 199.8 137.08218333333335 199.8 139.16908333333333 199.8 C 140.66214999999997 199.8 141.4086833333333 201.6 142.90174999999996 201.6 C 145.20921666666663 201.6 146.36294999999998 201.6 148.67041666666665 201.6 C 150.26528333333331 201.6 151.06271666666666 210.6 152.65758333333332 210.6 C 154.62571666666665 210.6 155.60978333333333 210.6 157.57791666666665 208.8 C 159.42728333333335 207.00000000000003 160.35196666666667 190.8 162.20133333333334 189 C 163.60956666666667 187.2 164.31368333333336 187.2 165.72191666666666 187.2 C 167.50341666666665 187.2 168.39416666666665 187.80631578947367 170.17566666666664 189 C 171.6178333333333 189.96631578947367 172.33891666666665 189.80228571428572 173.7810833333333 192.6 C 175.3080833333333 195.5622857142857 176.0715833333333 203.4 177.5985833333333 203.4 C 179.1764833333333 203.4 179.9654333333333 201.12248704663213 181.5433333333333 198 C 183.23999999999995 194.64248704663214 184.0883333333333 188.99999999999997 185.78499999999997 187.2 C 187.53256666666664 185.4 188.40634999999997 185.4 190.15391666666665 185.4 C 192.03721666666667 185.4 192.97886666666665 194.4 194.86216666666664 194.4 C 196.4570333333333 194.4 197.25446666666667 191.89161290322582 198.84933333333333 190.8 C 200.41026666666667 189.73161290322582 201.1907333333333 189 202.75166666666664 189 C 204.17686666666663 189 204.88946666666666 189.30666666666667 206.31466666666665 190.8 C 207.63806666666665 192.18666666666667 208.29976666666667 194.28545454545454 209.62316666666666 196.2 C 211.2859 198.60545454545453 212.11726666666664 201.6 213.77999999999997 201.6 C 214.95069999999996 201.6 215.53605 190.8 216.70675 189 C 218.53914999999998 187.2 219.45535 187.2 221.28775 187.2 C 222.67901666666666 187.2 223.37464999999997 189 224.76591666666664 189 C 226.37774999999996 189 227.18366666666665 189 228.79549999999998 189 C 230.3734 189 231.16234999999998 187.2 232.74024999999997 187.2 C 234.0466833333333 187.2 234.69989999999999 189 236.00633333333332 189 C 237.51636666666664 189 238.27138333333332 183.6 239.78141666666664 183.6 C 241.12178333333333 183.6 241.79196666666667 183.6 243.13233333333332 183.6 C 244.71023333333332 183.6 245.4991833333333 189 247.07708333333332 189 C 248.6549833333333 189 249.44393333333332 189 251.02183333333332 189 C 252.464 189 253.1850833333333 187.8341968911917 254.62724999999998 187.2 C 256.45964999999995 186.39419689119168 257.37585 186.20164948453606 259.20824999999996 185.4 C 260.6673833333333 184.76164948453606 261.39694999999995 183.6 262.8560833333333 183.6 C 264.50184999999993 183.6 265.32473333333326 183.8305617977528 266.97049999999996 185.4 C 268.34479999999996 186.7105617977528 269.03194999999994 190.8 270.40625 190.8 C 271.66178333333335 190.8 272.28954999999996 181.8 273.5450833333333 180 C 275.0551166666666 178.2 275.8101333333333 178.2 277.32016666666664 178.2 C 278.49086666666665 178.2 279.07621666666665 178.2 280.2469166666666 178.2 C 281.60425 178.2 282.28291666666667 176.4 283.64025 176.4 C 285.06544999999994 176.4 285.77805 180.23922580645163 287.20324999999997 181.8 C 288.4078833333333 183.11922580645165 289.0102 183.6 290.21483333333333 183.6 C 291.6400333333333 183.6 292.3526333333333 177.94143646408844 293.7778333333333 174.6 C 295.42359999999996 170.74143646408845 296.24648333333334 165.6 297.89225 165.6 C 299.13081666666665 165.6 299.7501 173.66961038961043 300.98866666666663 176.4 C 302.36296666666664 179.42961038961042 303.0501166666666 180 304.4244166666666 180 C 305.39151666666663 180 305.8750666666666 175.23457627118648 306.8421666666666 172.8 C 307.8771333333333 170.1945762711865 308.39461666666665 168.65485714285714 309.4295833333333 167.4 C 310.76995 165.77485714285714 311.44013333333334 165.6 312.78049999999996 165.6 C 314.17176666666666 165.6 314.8674 165.6 316.25866666666667 165.6 C 317.9214 165.6 318.7527666666667 165.6 320.4155 165.6 C 321.9425 165.6 322.70599999999996 168.09545454545454 324.23299999999995 169.2 C 325.6921333333333 170.25545454545454 326.4217 169.8015483870968 327.88083333333327 171 C 329.0515333333333 171.9615483870968 329.6368833333333 174.6 330.8075833333333 174.6 C 331.9273833333333 174.6 332.48728333333327 163.79999999999998 333.6070833333333 160.2 C 334.9135166666666 156.6 335.5667333333333 156.6 336.87316666666663 156.6 C 337.9590333333333 156.6 338.50196666666665 160.2 339.5878333333333 160.2 C 340.8942666666667 160.2 341.5474833333333 160.2 342.85391666666663 158.39999999999998 C 343.73618333333326 156.59999999999997 344.17731666666657 151.2771428571427 345.05958333333325 147.6 C 346.07758333333334 143.35714285714272 346.58658333333335 142.56330275229362 347.6045833333333 138.6 C 348.43594999999993 135.36330275229363 348.8516333333333 132.95999999999987 349.68299999999994 129.6 C 350.63313333333326 125.75999999999989 351.10819999999995 125.77871559633031 352.0583333333333 120.6 C 352.9575666666666 115.69871559633029 353.4071833333333 108.9933333333332 354.3064166666666 104.39999999999999 C 355.2395833333333 99.63333333333321 355.70616666666666 97.2 356.6393333333333 97.2 C 357.5894666666666 97.2 358.0645333333333 97.2 359.01466666666664 97.2 C 359.87996666666663 97.2 360.3126166666667 97.2 361.17791666666665 97.2 C 361.92445 97.2 362.29771666666664 91.91999999999996 363.04425 90 C 363.97741666666667 87.59999999999997 364.44399999999996 87.90857142857143 365.37716666666665 86.4 C 366.2255 85.02857142857144 366.64966666666663 82.79999999999998 367.498 82.79999999999998 C 368.4481333333333 82.79999999999998 368.9232 82.79999999999998 369.87333333333333 82.79999999999998 C 370.72166666666664 82.79999999999998 371.1458333333333 78.73333333333332 371.9941666666666 77.4 C 372.97823333333326 75.85333333333332 373.4702666666666 76.50782608695651 374.4543333333333 75.6 C 375.0312 75.0678260869565 375.31963333333334 73.79999999999998 375.8965 73.79999999999998 C 376.7787666666666 73.79999999999998 377.21989999999994 73.79999999999998 378.1021666666666 73.79999999999998 C 379.0862333333333 73.79999999999998 379.5782666666666 73.79999999999998 380.5623333333333 73.79999999999998 C 381.5294333333333 73.79999999999998 382.0129833333333 70.19999999999999 382.9800833333333 70.19999999999999 C 384.03201666666666 70.19999999999999 384.5579833333333 72 385.6099166666666 72 C 386.66184999999996 72 387.18781666666666 70.19999999999999 388.23974999999996 70.19999999999999 C 389.29168333333325 70.19999999999999 389.81764999999996 70.19999999999999 390.8695833333333 70.19999999999999 C 391.78578333333326 70.19999999999999 392.24388333333326 64.79999999999998 393.16008333333326 64.79999999999998 C 394.24594999999994 64.79999999999998 394.7888833333333 66.6 395.87474999999995 66.6 C 396.9775833333333 66.6 397.52899999999994 66.6 398.6318333333333 66.6 C 399.7007333333333 66.6 400.23518333333334 61.19999999999999 401.30408333333327 61.19999999999999 C 402.3729833333333 61.19999999999999 402.9074333333333 61.19999999999999 403.9763333333333 61.19999999999999 C 405.16399999999993 61.19999999999999 405.7578333333333 61.19999999999999 406.9454999999999 61.19999999999999 C 407.77686666666665 61.19999999999999 408.19255 61.19999999999999 409.02391666666665 61.19999999999999 C 410.58485 61.19999999999999 411.3653166666666 61.19999999999999 412.9262499999999 61.19999999999999 C 413.9612166666666 61.19999999999999 414.47869999999995 59.400000000000006 415.5136666666666 59.400000000000006 C 417.4478666666666 59.400000000000006 418.4149666666666 59.400000000000006 420.3491666666666 59.400000000000006 C 422.2154999999999 59.400000000000006 423.14866666666666 58.483271375464675 425.015 57.599999999999994 C 427.71270000000004 56.32327137546466 429.06155 55.36285714285715 431.75925 54 C 434.76234999999997 52.482857142857156 436.26390000000004 50.400000000000006 439.26699999999994 50.400000000000006 C 443.4238333333333 50.400000000000006 445.5022499999999 52.19999999999999 449.6590833333333 52.19999999999999 C 453.03544999999997 52.19999999999999 454.72363333333334 52.19999999999999 458.09999999999997 52.19999999999999 C 461.8835666666666 52.19999999999999 467.5589166666666 43.19999999999999 467.5589166666666 43.19999999999999" stroke="#f7a35c" stroke-width="2"  stroke-linejoin="round" stroke-linecap="round"></path></g><g class="highcharts-markers" visibility="visible"  transform="translate(81,53) scale(1 1)" clip-path="none"></g><g class="highcharts-series" visibility="visible"  transform="translate(81,53) scale(1 1)" clip-path="url(#highcharts-14)"><path fill="none" d="M 36.35108333333333 75.6 C 36.35108333333333 75.6 42.48453333333333 81.04664788732393 46.573499999999996 91.79999999999998 C 48.50769999999999 96.88664788732393 49.474799999999995 108.60428571428575 51.40899999999999 115.2 C 53.275333333333336 121.56428571428575 54.208499999999994 122.4 56.07483333333333 124.2 C 57.43216666666666 126 58.11083333333333 126 59.46816666666666 126 C 61.26663333333333 126 62.16586666666666 126 63.96433333333333 126 C 65.13503333333333 126 65.72038333333333 126 66.89108333333333 127.8 C 69.04585 129.6 70.12323333333333 136.06448275862067 72.27799999999999 140.39999999999998 C 74.05949999999999 143.98448275862066 74.95025 144.74716981132073 76.73174999999999 147.6 C 78.54718333333332 150.50716981132075 79.4549 151.97284403669727 81.27033333333333 154.8 C 83.15363333333332 157.73284403669726 84.09528333333333 156.80520000000004 85.97858333333332 162 C 87.48861666666667 166.16520000000003 88.24363333333332 178.2 89.75366666666666 178.2 C 91.28066666666666 178.2 92.04416666666665 177.06122448979593 93.57116666666666 176.4 C 95.36963333333333 175.62122448979594 96.26886666666667 176.16553846153843 98.06733333333332 174.6 C 99.57736666666668 173.28553846153844 100.33238333333333 169.2 101.84241666666667 169.2 C 103.67481666666666 169.2 104.59101666666666 169.47529411764708 106.42341666666665 171 C 108.05221666666667 172.35529411764708 108.86661666666666 174.40615384615387 110.49541666666666 176.4 C 112.39568333333332 178.72615384615386 113.34581666666665 181.8 115.24608333333333 181.8 C 117.26511666666666 181.8 118.27463333333333 181.8 120.29366666666665 181.8 C 121.95639999999999 181.8 122.78776666666666 194.4 124.45049999999999 194.4 C 126.79189999999998 194.4 127.96259999999998 193.57283720930232 130.30399999999997 190.8 C 131.61043333333333 189.25283720930233 132.26364999999998 185.39999999999998 133.57008333333332 183.6 C 135.62304999999998 181.8 136.64953333333332 181.8 138.7025 181.8 C 140.14466666666664 181.8 140.86575 185.4 142.30791666666664 185.4 C 144.27605 185.4 145.26011666666665 185.4 147.22825 185.4 C 149.16244999999998 185.4 150.12955 194.4 152.06375 194.4 C 153.84525 194.4 154.736 188.39735682819384 156.51749999999998 185.4 C 158.5874333333333 181.91735682819385 159.62239999999997 181.04666666666662 161.6923333333333 178.2 C 163.28719999999998 176.00666666666663 164.08463333333333 172.8 165.6795 172.8 C 167.4270666666667 172.8 168.30085 173.41026737967914 170.04841666666667 174.6 C 171.47361666666666 175.57026737967914 172.18621666666667 175.79454545454547 173.61141666666666 178.2 C 175.17235 180.83454545454546 175.95281666666665 187.2 177.51375 187.2 C 179.10861666666665 187.2 179.90605 183.5625 181.50091666666665 181.8 C 183.16365000000002 179.9625 183.99501666666666 178.2 185.65775 178.2 C 187.45621666666665 178.2 188.35544999999996 179.31857142857143 190.15391666666665 180 C 192.15598333333332 180.75857142857143 193.15701666666664 181.8 195.1590833333333 181.8 C 196.63518333333332 181.8 197.37323333333333 178.2 198.84933333333333 178.2 C 200.61386666666667 178.2 201.49613333333332 178.2 203.26066666666665 178.2 C 204.51619999999997 178.2 205.1439666666666 178.9344 206.39949999999996 180 C 207.68896666666666 181.0944 208.3337 183.6 209.62316666666666 183.6 C 211.33679999999998 183.6 212.19361666666663 183.6 213.90724999999998 183.6 C 215.07794999999996 183.6 215.6633 171 216.83399999999997 171 C 218.61549999999997 171 219.50625 172.8 221.28775 172.8 C 222.74688333333333 172.8 223.47644999999997 172.8 224.9355833333333 172.8 C 226.47954999999996 172.8 227.25153333333333 170.62434782608693 228.79549999999998 169.2 C 230.3734 167.7443478260869 231.16234999999998 165.6 232.74024999999997 165.6 C 234.13151666666664 165.6 234.82715 176.4 236.21841666666663 176.4 C 237.64361666666665 176.4 238.35621666666663 173.16 239.78141666666664 171 C 241.20661666666666 168.84 241.91921666666667 165.6 243.34441666666663 165.6 C 245.10894999999996 165.6 245.99121666666662 172.8 247.75574999999995 172.8 C 249.33364999999995 172.8 250.12259999999998 169.2 251.70049999999998 169.2 C 253.14266666666663 169.2 253.86374999999998 169.2 255.30591666666663 169.2 C 257.07045 169.2 257.9527166666667 169.2 259.71725 169.2 C 260.9727833333333 169.2 261.60054999999994 165.05364705882354 262.8560833333333 163.8 C 264.48488333333324 162.17364705882358 265.2992833333333 162 266.9280833333333 162 C 268.31935 162 269.0149833333333 162 270.40625 162 C 271.69571666666667 162 272.34045 159.79414012738854 273.62991666666665 158.39999999999998 C 275.0042166666666 156.91414012738855 275.6913666666666 154.8 277.06566666666663 154.8 C 278.20243333333326 154.8 278.77081666666663 154.8 279.90758333333326 154.8 C 281.3327833333333 154.8 282.0453833333333 153 283.4705833333333 153 C 284.8448833333333 153 285.5320333333333 155.47846153846152 286.9063333333333 156.6 C 288.1788333333333 157.6384615384615 288.8150833333333 158.39999999999998 290.0875833333333 158.39999999999998 C 291.52975 158.39999999999998 292.2508333333333 147.6 293.6929999999999 147.6 C 295.4066333333333 147.6 296.26345 147.6 297.9770833333333 147.6 C 299.06295 147.6 299.6058833333333 152.93189189189192 300.69174999999996 154.8 C 302.11695 157.25189189189192 302.82955 158.39999999999998 304.25475 158.39999999999998 C 305.05218333333335 158.39999999999998 305.4509 153.59575221238947 306.24833333333333 151.2 C 307.3681333333333 147.83575221238948 307.9280333333333 144 309.0478333333333 144 C 310.3882 144 311.0583833333333 145.11469879518071 312.39875 145.8 C 313.87485 146.5546987951807 314.61289999999997 147.6 316.08899999999994 147.6 C 317.58206666666666 147.6 318.32859999999994 144 319.82166666666666 144 C 321.3317 144 322.0867166666667 147.6 323.59675 147.6 C 324.86925 147.6 325.50550000000004 147.6 326.778 147.6 C 328.1183666666667 147.6 328.78855 147.6 330.1289166666666 147.6 C 331.12994999999995 147.6 331.6304666666666 143.64489795918368 332.63149999999996 142.2 C 334.1245666666666 140.0448979591837 334.87109999999996 138.6 336.3641666666666 138.6 C 337.4161 138.6 337.9420666666666 138.6 338.99399999999997 138.6 C 340.35133333333334 138.6 341.0299999999999 135.2571428571429 342.3873333333333 133.2 C 343.40533333333326 131.6571428571429 343.9143333333333 131.75999999999988 344.93233333333325 129.6 C 345.95033333333333 127.43999999999987 346.45933333333335 125.66037735849054 347.4773333333333 122.39999999999999 C 348.2578 119.90037735849054 348.6480333333333 117.84959999999997 349.42849999999993 115.2 C 350.34469999999993 112.08959999999998 350.80279999999993 112.0082474226806 351.719 108 C 352.44856666666664 104.8082474226806 352.81335 100.87841584158384 353.5429166666666 97.2 C 354.5269833333333 92.23841584158384 355.01901666666663 86.4 356.00308333333334 86.4 C 356.97018333333335 86.4 357.4537333333333 88.19999999999999 358.4208333333333 88.19999999999999 C 359.3200666666666 88.19999999999999 359.7696833333333 88.19999999999999 360.66891666666663 88.19999999999999 C 361.4833166666666 88.19999999999999 361.89051666666666 84.2106122448979 362.70491666666663 82.79999999999998 C 363.55325 81.3306122448979 363.9774166666666 82.08 364.82574999999997 81 C 365.67408333333333 79.92 366.09824999999995 78.44854368932043 366.9465833333333 77.4 C 367.8458166666666 76.28854368932042 368.29543333333334 76.32685714285715 369.19466666666665 75.6 C 370.0769333333333 74.88685714285714 370.51806666666664 74.8497196261682 371.4003333333333 73.79999999999998 C 372.3335 72.6897196261682 372.80008333333325 70.19999999999999 373.73324999999994 70.19999999999999 C 374.5137166666666 70.19999999999999 374.90395 70.19999999999999 375.6844166666666 70.19999999999999 C 376.44791666666663 70.19999999999999 376.82966666666664 70.19999999999999 377.5931666666666 70.19999999999999 C 378.54329999999993 70.19999999999999 379.01836666666657 69.13309090909094 379.96849999999995 68.4 C 380.88469999999995 67.69309090909093 381.34279999999995 66.6 382.25899999999996 66.6 C 383.37879999999996 66.6 383.9387 66.6 385.0585 66.6 C 385.9746999999999 66.6 386.43279999999993 64.79999999999998 387.34899999999993 64.79999999999998 C 388.45183333333324 64.79999999999998 389.0032499999999 64.79999999999998 390.1060833333333 64.79999999999998 C 391.09014999999994 64.79999999999998 391.5821833333333 63.74571428571428 392.56624999999997 63 C 393.48245 62.30571428571428 393.94055 61.19999999999999 394.85675 61.19999999999999 C 396.0444166666667 61.19999999999999 396.63824999999997 63 397.82591666666667 63 C 398.65728333333334 63 399.0729666666666 57.599999999999994 399.9043333333333 57.599999999999994 C 401.14289999999994 57.599999999999994 401.7621833333333 57.599999999999994 403.00075 57.599999999999994 C 404.08661666666666 57.599999999999994 404.62955 57.599999999999994 405.71541666666667 57.599999999999994 C 406.66555 57.599999999999994 407.1406166666667 57.599999999999994 408.09074999999996 57.599999999999994 C 409.43111666666664 57.599999999999994 410.1012999999999 57.599999999999994 411.4416666666666 57.599999999999994 C 412.66326666666663 57.599999999999994 413.27406666666667 57.599999999999994 414.49566666666664 57.599999999999994 C 415.86996666666664 57.599999999999994 416.5571166666667 56.40123711340203 417.9314166666666 55.79999999999998 C 419.8486499999999 54.96123711340205 420.8072666666666 54 422.7244999999999 54 C 424.6926333333333 54 425.6767 54 427.6448333333333 54 C 430.91939999999994 54 432.55668333333324 53.30578249336871 435.83124999999995 52.19999999999999 C 438.9531166666666 51.145782493368706 440.51404999999994 48.599999999999994 443.6359166666666 48.599999999999994 C 447.7248833333333 48.599999999999994 449.7693666666666 48.599999999999994 453.8583333333333 48.599999999999994 C 457.13289999999995 48.599999999999994 458.77018333333325 48.599999999999994 462.04474999999996 48.599999999999994 C 465.9470833333333 48.599999999999994 471.8005833333333 43.19999999999999 471.8005833333333 43.19999999999999" stroke="#90ed7d" stroke-width="2"  stroke-linejoin="round" stroke-linecap="round"></path></g><g class="highcharts-markers" visibility="visible"  transform="translate(81,53) scale(1 1)" clip-path="none"></g><g class="highcharts-series" visibility="visible"  transform="translate(81,53) scale(1 1)" clip-path="url(#highcharts-14)"><path fill="none" d="M 34.06058333333333 39.599999999999994 C 34.06058333333333 39.599999999999994 39.20148333333333 37.338404907975466 42.62875 36 C 44.73261666666666 35.17840490797546 45.78454999999999 34.19999999999999 47.88841666666666 34.19999999999999 C 49.296649999999985 34.19999999999999 50.00076666666666 34.19999999999999 51.40899999999999 34.19999999999999 C 53.36016666666666 34.19999999999999 54.33574999999998 36 56.286916666666656 36 C 57.30491666666666 36 57.81391666666666 36 58.83191666666666 36 C 60.46071666666667 36 61.27511666666667 35.46439024390243 62.90391666666666 34.19999999999999 C 64.05765 33.304390243902425 64.63451666666666 30.599999999999994 65.78824999999999 30.599999999999994 C 67.23041666666666 30.599999999999994 67.95149999999998 32.400000000000006 69.39366666666666 32.400000000000006 C 70.88673333333332 32.400000000000006 71.63326666666666 32.400000000000006 73.12633333333332 32.400000000000006 C 74.87389999999998 32.400000000000006 75.74768333333331 30.599999999999994 77.49524999999998 30.599999999999994 C 79.07314999999998 30.599999999999994 79.86209999999998 30.599999999999994 81.43999999999998 30.599999999999994 C 83.20453333333332 30.599999999999994 84.0868 30.599999999999994 85.85133333333332 30.599999999999994 C 87.32743333333333 30.599999999999994 88.06548333333332 30.599999999999994 89.54158333333332 30.599999999999994 C 91.03464999999998 30.599999999999994 91.78118333333332 29.524114285714266 93.27424999999998 28.799999999999983 C 94.75034999999998 28.084114285714268 95.48839999999998 27 96.96449999999999 27 C 98.54239999999999 27 99.33134999999999 29.49626373626373 100.90924999999999 30.599999999999994 C 102.41928333333333 31.656263736263735 103.17429999999999 32.400000000000006 104.68433333333333 32.400000000000006 C 106.21133333333333 32.400000000000006 106.97483333333332 32.400000000000006 108.50183333333331 32.400000000000006 C 110.23243333333332 32.400000000000006 111.09773333333332 32.400000000000006 112.82833333333333 32.400000000000006 C 114.23656666666666 32.400000000000006 114.94068333333333 33.29454545454545 116.34891666666665 34.19999999999999 C 118.30008333333333 35.45454545454544 119.27566666666664 37.79999999999998 121.22683333333332 37.79999999999998 C 122.55023333333331 37.79999999999998 123.2119333333333 37.79999999999998 124.53533333333331 37.79999999999998 C 126.40166666666664 37.79999999999998 127.33483333333334 34.19999999999999 129.20116666666667 34.19999999999999 C 130.49063333333334 34.19999999999999 131.13536666666664 34.19999999999999 132.4248333333333 34.19999999999999 C 133.85003333333333 34.19999999999999 134.5626333333333 34.19999999999999 135.98783333333333 34.19999999999999 C 137.68449999999999 34.19999999999999 138.53283333333334 36 140.2295 36 C 141.46806666666666 36 142.08734999999996 34.70057142857142 143.32591666666664 34.19999999999999 C 145.65034999999997 33.260571428571424 146.81256666666664 33.24307692307693 149.13699999999997 32.400000000000006 C 150.78276666666665 31.80307692307693 151.60565 30.599999999999994 153.25141666666667 30.599999999999994 C 155.15168333333332 30.599999999999994 156.10181666666668 31.37924050632912 158.00208333333333 32.400000000000006 C 160.12291666666664 33.53924050632912 161.1833333333333 34.663366336633665 163.30416666666665 36 C 164.61059999999998 36.823366336633654 165.26381666666666 37.79999999999998 166.57025 37.79999999999998 C 168.09724999999997 37.79999999999998 168.86075 37.79999999999998 170.38774999999998 37.79999999999998 C 171.91474999999997 37.79999999999998 172.67825 37.79999999999998 174.20524999999998 37.79999999999998 C 175.47774999999996 37.79999999999998 176.11399999999998 37.79999999999998 177.38649999999998 37.79999999999998 C 178.64203333333333 37.79999999999998 179.26979999999998 36.68307692307692 180.52533333333332 36 C 181.91660000000002 35.24307692307692 182.61223333333334 34.85237569060772 184.0035 34.19999999999999 C 185.6832 33.412375690607725 186.52305 32.400000000000006 188.20274999999998 32.400000000000006 C 189.62795 32.400000000000006 190.34054999999998 32.400000000000006 191.76575 32.400000000000006 C 193.76781666666665 32.400000000000006 194.76885 36 196.77091666666664 36 C 197.97554999999997 36 198.57786666666667 36 199.7825 36 C 201.3434333333333 36 202.1239 33.59710843373496 203.68483333333333 32.400000000000006 C 204.94036666666665 31.437108433734952 205.5681333333333 30.599999999999994 206.82366666666664 30.599999999999994 C 208.1470666666666 30.599999999999994 208.80876666666663 34.19999999999999 210.13216666666665 34.19999999999999 C 211.64219999999995 34.19999999999999 212.39721666666665 34.19999999999999 213.90724999999998 34.19999999999999 C 215.12884999999997 34.19999999999999 215.73964999999998 34.19999999999999 216.96124999999998 34.19999999999999 C 218.40341666666663 34.19999999999999 219.12449999999998 34.19999999999999 220.56666666666663 34.19999999999999 C 222.04276666666664 34.19999999999999 222.78081666666662 31.85279999999999 224.25691666666663 30.599999999999994 C 225.32581666666664 29.692799999999988 225.86026666666663 28.799999999999983 226.92916666666665 28.799999999999983 C 228.50706666666665 28.799999999999983 229.29601666666662 28.799999999999983 230.87391666666664 28.799999999999983 C 231.89191666666665 28.799999999999983 232.40091666666666 30.599999999999994 233.41891666666666 30.599999999999994 C 234.72535 30.599999999999994 235.37856666666667 30.599999999999994 236.68499999999997 30.599999999999994 C 238.12716666666665 30.599999999999994 238.84824999999995 30.599999999999994 240.29041666666663 30.599999999999994 C 241.51201666666665 30.599999999999994 242.12281666666664 28.799999999999983 243.34441666666663 28.799999999999983 C 244.76961666666665 28.799999999999983 245.48221666666663 30.599999999999994 246.90741666666665 30.599999999999994 C 248.2986833333333 30.599999999999994 248.99431666666663 30.599999999999994 250.3855833333333 30.599999999999994 C 251.84471666666664 30.599999999999994 252.5742833333333 30.599999999999994 254.03341666666665 30.599999999999994 C 255.32288333333332 30.599999999999994 255.96761666666663 30.599999999999994 257.2570833333333 30.599999999999994 C 259.00464999999997 30.599999999999994 259.8784333333333 32.400000000000006 261.626 32.400000000000006 C 262.8815333333333 32.400000000000006 263.5093 30.599999999999994 264.76483333333334 30.599999999999994 C 266.37666666666667 30.599999999999994 267.18258333333335 30.599999999999994 268.7944166666666 30.599999999999994 C 269.99905 30.599999999999994 270.60136666666665 29.927647058823528 271.806 28.799999999999983 C 272.9088333333333 27.767647058823524 273.46025 25.19999999999999 274.56308333333334 25.19999999999999 C 275.90344999999996 25.19999999999999 276.5736333333333 25.19999999999999 277.91399999999993 25.19999999999999 C 278.9829 25.19999999999999 279.51734999999996 25.19999999999999 280.58625 25.19999999999999 C 281.9944833333333 25.19999999999999 282.6986 28.799999999999983 284.1068333333333 28.799999999999983 C 285.3454 28.799999999999983 285.9646833333333 28.799999999999983 287.20324999999997 28.799999999999983 C 288.5096833333333 28.799999999999983 289.1629 27.720000000000013 290.46933333333334 27 C 291.77576666666664 26.280000000000015 292.42898333333335 25.19999999999999 293.73541666666665 25.19999999999999 C 295.39815 25.19999999999999 296.22951666666665 26.083636363636362 297.89225 27 C 298.8423833333333 27.52363636363636 299.31745 28.799999999999983 300.26758333333333 28.799999999999983 C 301.6927833333333 28.799999999999983 302.4053833333333 28.799999999999983 303.83058333333327 28.799999999999983 C 304.5771166666666 28.799999999999983 304.95038333333326 25.19999999999999 305.6969166666666 25.19999999999999 C 306.5622166666666 25.19999999999999 306.9948666666666 30.599999999999994 307.86016666666666 30.599999999999994 C 309.0648 30.599999999999994 309.6671166666667 30.599999999999994 310.87175 30.599999999999994 C 311.87278333333336 30.599999999999994 312.37330000000003 29.32122699386499 313.3743333333333 28.799999999999983 C 315.1388666666667 27.881226993864992 316.0211333333333 27.846101694915262 317.78566666666666 27 C 319.0242333333333 26.406101694915264 319.64351666666664 25.19999999999999 320.8820833333333 25.19999999999999 C 322.30728333333326 25.19999999999999 323.01988333333327 25.19999999999999 324.4450833333333 25.19999999999999 C 325.63274999999993 25.19999999999999 326.2265833333333 28.799999999999983 327.41425 28.799999999999983 C 328.4152833333333 28.799999999999983 328.9158 25.19999999999999 329.91683333333333 25.19999999999999 C 330.9687666666667 25.19999999999999 331.49473333333333 27 332.5466666666667 27 C 333.7343333333333 27 334.3281666666666 27 335.51583333333326 27 C 336.6356333333333 27 337.19553333333334 25.19999999999999 338.31533333333334 25.19999999999999 C 339.5539 25.19999999999999 340.17318333333327 25.19999999999999 341.4117499999999 25.19999999999999 C 342.53155 25.19999999999999 343.09145 25.19999999999999 344.21125 25.19999999999999 C 345.1613833333333 25.19999999999999 345.63644999999997 28.846956521739138 346.5865833333333 30.599999999999994 C 347.58761666666663 32.44695652173914 348.0881333333333 32.97461538461538 349.08916666666664 34.19999999999999 C 349.85266666666666 35.13461538461539 350.2344166666666 36 350.99791666666664 36 C 351.99895 36 352.49946666666665 34.19999999999999 353.5005 34.19999999999999 C 354.26399999999995 34.19999999999999 354.64575 34.19999999999999 355.40925 34.19999999999999 C 356.3424166666667 34.19999999999999 356.809 36 357.74216666666666 36 C 358.55656666666664 36 358.96376666666663 36 359.7781666666666 36 C 360.66043333333334 36 361.10156666666666 37.79999999999998 361.98383333333334 37.79999999999998 C 362.6625 37.79999999999998 363.0018333333333 37.79999999999998 363.68049999999994 37.79999999999998 C 364.46096666666665 37.79999999999998 364.85119999999995 39.599999999999994 365.63166666666666 39.599999999999994 C 366.3612333333333 39.599999999999994 366.7260166666666 39.599999999999994 367.45558333333327 39.599999999999994 C 368.32088333333326 39.599999999999994 368.7535333333333 37.79999999999998 369.6188333333333 37.79999999999998 C 370.3992999999999 37.79999999999998 370.7895333333333 37.79999999999998 371.56999999999994 37.79999999999998 C 372.41833333333324 37.79999999999998 372.8424999999999 37.79999999999998 373.6908333333333 37.79999999999998 C 374.4882666666666 37.79999999999998 374.8869833333333 37.79999999999998 375.6844166666666 37.79999999999998 C 376.44791666666663 37.79999999999998 376.82966666666664 37.79999999999998 377.5931666666666 37.79999999999998 C 378.54329999999993 37.79999999999998 379.01836666666657 37.79999999999998 379.96849999999995 37.79999999999998 C 380.88469999999995 37.79999999999998 381.34279999999995 39.599999999999994 382.25899999999996 39.599999999999994 C 383.2939666666666 39.599999999999994 383.81145 39.599999999999994 384.84641666666664 39.599999999999994 C 385.72868333333327 39.599999999999994 386.16981666666663 41.400000000000006 387.0520833333333 41.400000000000006 C 387.9682833333333 41.400000000000006 388.4263833333333 41.400000000000006 389.3425833333333 41.400000000000006 C 390.2587833333333 41.400000000000006 390.7168833333333 39.599999999999994 391.6330833333333 39.599999999999994 C 392.4983833333333 39.599999999999994 392.93103333333335 39.599999999999994 393.79633333333334 39.599999999999994 C 395.0858 39.599999999999994 395.73053333333326 39.599999999999994 397.0199999999999 39.599999999999994 C 397.98709999999994 39.599999999999994 398.4706499999999 37.79999999999998 399.43775 37.79999999999998 C 400.71025 37.79999999999998 401.3465 37.79999999999998 402.61899999999997 37.79999999999998 C 403.637 37.79999999999998 404.1459999999999 41.400000000000006 405.16399999999993 41.400000000000006 C 406.18199999999996 41.400000000000006 406.691 41.400000000000006 407.709 41.400000000000006 C 408.6930666666666 41.400000000000006 409.1851 41.400000000000006 410.1691666666666 41.400000000000006 C 411.4925666666666 41.400000000000006 412.1542666666666 43.19999999999999 413.47766666666666 43.19999999999999 C 414.61443333333335 43.19999999999999 415.1828166666666 43.19999999999999 416.3195833333333 43.19999999999999 C 418.3046833333333 43.19999999999999 419.29723333333334 45 421.28233333333327 45 C 423.06383333333326 45 423.9545833333333 43.77056603773583 425.7360833333333 43.19999999999999 C 428.45074999999997 42.330566037735835 429.80808333333323 41.400000000000006 432.52275 41.400000000000006 C 435.69551666666666 41.400000000000006 437.28189999999995 43.19999999999999 440.45466666666664 43.19999999999999 C 444.37396666666666 43.19999999999999 446.3336166666666 43.19999999999999 450.25291666666664 43.19999999999999 C 454.2909833333333 43.19999999999999 456.3100166666666 43.19999999999999 460.3480833333333 43.19999999999999 C 463.5547833333333 43.19999999999999 468.3648333333333 43.19999999999999 468.3648333333333 43.19999999999999" stroke="#434348" stroke-width="2"  stroke-linejoin="round" stroke-linecap="round"></path></g><g class="highcharts-markers" visibility="visible"  transform="translate(81,53) scale(1 1)" clip-path="none"></g><g class="highcharts-series" visibility="visible"  transform="translate(81,53) scale(1 1)" clip-path="url(#highcharts-14)"><path fill="none" d="M 33.72125 43.19999999999999 C 33.72125 43.19999999999999 38.96395 42.70870588235295 42.459083333333325 41.400000000000006 C 44.73261666666666 40.54870588235295 45.869383333333325 37.79999999999998 48.14291666666666 37.79999999999998 C 49.449349999999995 37.79999999999998 50.102566666666654 37.79999999999998 51.40899999999999 37.79999999999998 C 53.275333333333336 37.79999999999998 54.208499999999994 37.79999999999998 56.07483333333333 37.79999999999998 C 57.14373333333333 37.79999999999998 57.67818333333332 37.79999999999998 58.74708333333333 37.79999999999998 C 60.30801666666666 37.79999999999998 61.08848333333333 39.599999999999994 62.64941666666666 39.599999999999994 C 63.854049999999994 39.599999999999994 64.45636666666667 37.31076923076923 65.661 36 C 67.10316666666667 34.430769230769236 67.82424999999999 32.400000000000006 69.26641666666666 32.400000000000006 C 70.75948333333334 32.400000000000006 71.50601666666667 35.01512953367877 72.99908333333333 36 C 74.78058333333334 37.175129533678756 75.67133333333334 37.79999999999998 77.45283333333333 37.79999999999998 C 79.03073333333333 37.79999999999998 79.81968333333333 37.79999999999998 81.39758333333333 37.79999999999998 C 83.14514999999999 37.79999999999998 84.01893333333332 33.8832 85.7665 32.400000000000006 C 87.41226666666667 31.003200000000007 88.23515 30.599999999999994 89.88091666666666 30.599999999999994 C 91.34004999999999 30.599999999999994 92.06961666666666 32.91668393782383 93.52874999999999 34.19999999999999 C 95.34418333333332 35.79668393782382 96.2519 37.79999999999998 98.06733333333332 37.79999999999998 C 99.67916666666666 37.79999999999998 100.48508333333334 37.79999999999998 102.09691666666666 37.79999999999998 C 103.64088333333333 37.79999999999998 104.41286666666664 37.79999999999998 105.95683333333332 37.79999999999998 C 107.58563333333332 37.79999999999998 108.40003333333334 38.864680851063824 110.02883333333332 39.599999999999994 C 111.58976666666668 40.304680851063836 112.37023333333332 41.400000000000006 113.93116666666666 41.400000000000006 C 115.59389999999999 41.400000000000006 116.42526666666667 41.400000000000006 118.088 41.400000000000006 C 119.69983333333332 41.400000000000006 120.50574999999999 43.19999999999999 122.11758333333331 43.19999999999999 C 123.45794999999998 43.19999999999999 124.12813333333331 40.962395209580826 125.46849999999998 39.599999999999994 C 126.96156666666666 38.08239520958083 127.70809999999999 36 129.20116666666667 36 C 130.49063333333334 36 131.13536666666664 41.400000000000006 132.4248333333333 41.400000000000006 C 133.9009333333333 41.400000000000006 134.63898333333333 41.400000000000006 136.11508333333333 41.400000000000006 C 137.70995 41.400000000000006 138.50738333333334 43.19999999999999 140.10225 43.19999999999999 C 141.42565 43.19999999999999 142.08735000000001 43.19999999999999 143.41075 43.19999999999999 C 145.6333833333333 43.19999999999999 146.7447 40.897981651376135 148.9673333333333 39.599999999999994 C 150.4434333333333 38.73798165137613 151.18148333333332 38.420198019801965 152.65758333333332 37.79999999999998 C 154.60875 36.98019801980197 155.58433333333332 36 157.53549999999998 36 C 159.19823333333332 36 160.0296 36 161.6923333333333 36 C 163.16843333333333 36 163.9064833333333 38.44711656441717 165.38258333333332 39.599999999999994 C 166.67204999999998 40.607116564417176 167.31678333333332 41.400000000000006 168.60625 41.400000000000006 C 170.13325 41.400000000000006 170.89675 41.400000000000006 172.42374999999998 41.400000000000006 C 173.67928333333333 41.400000000000006 174.30704999999998 41.400000000000006 175.56258333333332 41.400000000000006 C 176.83508333333333 41.400000000000006 177.47133333333332 37.79999999999998 178.74383333333333 37.79999999999998 C 180.32173333333333 37.79999999999998 181.11068333333333 39.599999999999994 182.68858333333333 39.599999999999994 C 184.19861666666665 39.599999999999994 184.95363333333333 39.599999999999994 186.46366666666665 39.599999999999994 C 188.07549999999998 39.599999999999994 188.88141666666664 39.599999999999994 190.49324999999996 39.599999999999994 C 192.2068833333333 39.599999999999994 193.06369999999998 43.19999999999999 194.77733333333333 43.19999999999999 C 196.1686 43.19999999999999 196.86423333333332 42.156923076923086 198.25549999999998 41.400000000000006 C 199.5110333333333 40.71692307692309 200.13879999999997 40.324897959183666 201.3943333333333 39.599999999999994 C 202.63289999999998 38.884897959183654 203.25218333333333 37.79999999999998 204.49075 37.79999999999998 C 205.69538333333335 37.79999999999998 206.2977 38.61058064516128 207.50233333333333 39.599999999999994 C 208.92753333333332 40.77058064516128 209.64013333333332 43.19999999999999 211.0653333333333 43.19999999999999 C 212.37176666666664 43.19999999999999 213.02498333333332 42.120000000000005 214.33141666666666 41.400000000000006 C 215.63785 40.68000000000001 216.29106666666667 39.599999999999994 217.59749999999997 39.599999999999994 C 219.20933333333332 39.599999999999994 220.01524999999998 39.599999999999994 221.6270833333333 39.599999999999994 C 222.88261666666662 39.599999999999994 223.51038333333332 41.400000000000006 224.76591666666664 41.400000000000006 C 226.08931666666666 41.400000000000006 226.75101666666666 40.596923076923055 228.07441666666665 39.599999999999994 C 229.61838333333336 38.43692307692305 230.3903666666666 36 231.9343333333333 36 C 232.9523333333333 36 233.46133333333333 36 234.47933333333333 36 C 235.85363333333333 36 236.5407833333333 37.02754966887415 237.9150833333333 37.79999999999998 C 239.10274999999996 38.46754966887415 239.6965833333333 39.599999999999994 240.88424999999998 39.599999999999994 C 242.27551666666665 39.599999999999994 242.97115 39.599999999999994 244.36241666666663 39.599999999999994 C 245.70278333333331 39.599999999999994 246.37296666666663 34.19999999999999 247.7133333333333 34.19999999999999 C 249.24033333333327 34.19999999999999 250.0038333333333 34.19999999999999 251.5308333333333 34.19999999999999 C 252.8203 34.19999999999999 253.4650333333333 34.19999999999999 254.75449999999998 34.19999999999999 C 256.1627333333333 34.19999999999999 256.86685 35.22389610389609 258.2750833333333 36 C 259.4797166666666 36.663896103896086 260.0820333333333 37.79999999999998 261.28666666666663 37.79999999999998 C 262.6100666666666 37.79999999999998 263.2717666666666 37.79999999999998 264.59516666666667 37.79999999999998 C 265.9864333333333 37.79999999999998 266.6820666666666 41.400000000000006 268.0733333333333 41.400000000000006 C 269.2949333333333 41.400000000000006 269.90573333333333 41.400000000000006 271.1273333333333 41.400000000000006 C 272.2641 41.400000000000006 272.8324833333333 35.99999999999997 273.96925 34.19999999999999 C 275.3265833333333 32.400000000000006 276.00525 32.400000000000006 277.3625833333333 32.400000000000006 C 278.4145166666666 32.400000000000006 278.9404833333333 36 279.99241666666666 36 C 281.3667166666666 36 282.05386666666664 32.031165644171736 283.4281666666666 30.599999999999994 C 284.8194333333333 29.151165644171726 285.5150666666666 28.799999999999983 286.9063333333333 28.799999999999983 C 288.0261333333333 28.799999999999983 288.5860333333333 28.799999999999983 289.7058333333333 28.799999999999983 C 291.0292333333333 28.799999999999983 291.6909333333333 28.799999999999983 293.0143333333333 28.799999999999983 C 294.49043333333327 28.799999999999983 295.2284833333333 29.363684210526333 296.7045833333333 30.599999999999994 C 297.80741666666665 31.523684210526337 298.3588333333333 34.19999999999999 299.4616666666666 34.19999999999999 C 300.97169999999994 34.19999999999999 301.7267166666666 32.400000000000006 303.23675 32.400000000000006 C 304.10204999999996 32.400000000000006 304.5347 32.400000000000006 305.4 32.400000000000006 C 306.3162 32.400000000000006 306.7743 32.400000000000006 307.6905 32.400000000000006 C 308.8103 32.400000000000006 309.3702 32.400000000000006 310.49 32.400000000000006 C 311.6098 32.400000000000006 312.16970000000003 34.19999999999999 313.2895 34.19999999999999 C 314.8165 34.19999999999999 315.58 34.19999999999999 317.10699999999997 34.19999999999999 C 318.4643333333333 34.19999999999999 319.1429999999999 32.400000000000006 320.5003333333333 32.400000000000006 C 322.06126666666665 32.400000000000006 322.8417333333333 34.19999999999999 324.4026666666667 34.19999999999999 C 325.64123333333333 34.19999999999999 326.2605166666666 33.495000000000005 327.49908333333326 32.400000000000006 C 328.7037166666666 31.335 329.3060333333333 28.799999999999983 330.5106666666666 28.799999999999983 C 331.46079999999995 28.799999999999983 331.9358666666666 29.710588235294075 332.88599999999997 30.599999999999994 C 334.2433333333333 31.87058823529408 334.9219999999999 34.19999999999999 336.2793333333333 34.19999999999999 C 337.2973333333333 34.19999999999999 337.8063333333333 33.030656934306556 338.8243333333333 32.400000000000006 C 340.13076666666666 31.59065693430656 340.78398333333337 30.599999999999994 342.09041666666667 30.599999999999994 C 343.04055 30.599999999999994 343.5156166666667 31.374915254237337 344.46574999999996 32.400000000000006 C 345.5176833333333 33.53491525423734 346.04364999999996 36 347.0955833333333 36 C 347.94391666666667 36 348.3680833333333 36 349.21641666666665 36 C 350.09868333333327 36 350.5398166666666 37.79999999999998 351.42208333333326 37.79999999999998 C 352.27041666666656 37.79999999999998 352.6945833333333 36.7422680412371 353.5429166666666 36 C 354.34034999999994 35.3022680412371 354.73906666666664 34.19999999999999 355.53649999999993 34.19999999999999 C 356.43573333333325 34.19999999999999 356.8853499999999 35.27314285714285 357.7845833333333 36 C 358.66684999999995 36.71314285714285 359.1079833333333 37.79999999999998 359.99025 37.79999999999998 C 360.78768333333335 37.79999999999998 361.18640000000005 37.79999999999998 361.98383333333334 37.79999999999998 C 362.6625 37.79999999999998 363.0018333333333 37.79999999999998 363.68049999999994 37.79999999999998 C 364.4779333333333 37.79999999999998 364.8766499999999 37.79999999999998 365.6740833333333 37.79999999999998 C 366.4545499999999 37.79999999999998 366.8447833333333 37.79999999999998 367.62525 37.79999999999998 C 368.5244833333333 37.79999999999998 368.9741 39.599999999999994 369.87333333333333 39.599999999999994 C 370.6877333333333 39.599999999999994 371.09493333333336 36 371.90933333333334 36 C 372.7916 36 373.2327333333333 36 374.11499999999995 36 C 374.7936666666666 36 375.133 37.180645161290315 375.8116666666666 37.79999999999998 C 376.7108999999999 38.62064516129031 377.16051666666664 39.599999999999994 378.05974999999995 39.599999999999994 C 378.9080833333333 39.599999999999994 379.33224999999993 39.599999999999994 380.1805833333333 39.599999999999994 C 381.11375 39.599999999999994 381.5803333333333 39.599999999999994 382.51349999999996 39.599999999999994 C 383.5484666666666 39.599999999999994 384.06595 41.400000000000006 385.10091666666665 41.400000000000006 C 386.0510499999999 41.400000000000006 386.5261166666666 41.400000000000006 387.47624999999994 41.400000000000006 C 388.39244999999994 41.400000000000006 388.85054999999994 41.400000000000006 389.76674999999994 41.400000000000006 C 390.7508166666666 41.400000000000006 391.24285 41.400000000000006 392.2269166666666 41.400000000000006 C 393.22794999999996 41.400000000000006 393.72846666666663 39.599999999999994 394.7295 39.599999999999994 C 395.8323333333333 39.599999999999994 396.38374999999996 39.599999999999994 397.4865833333333 39.599999999999994 C 398.4706499999999 39.599999999999994 398.9626833333333 36 399.94675 36 C 401.16835000000003 36 401.77915 36 403.00075 36 C 404.01875 36 404.5277499999999 39.599999999999994 405.54574999999994 39.599999999999994 C 406.4789166666666 39.599999999999994 406.9455 39.599999999999994 407.8786666666666 39.599999999999994 C 408.9136333333333 39.599999999999994 409.43111666666664 39.599999999999994 410.4660833333333 39.599999999999994 C 411.65374999999995 39.599999999999994 412.2475833333333 40.67482014388491 413.43524999999994 41.400000000000006 C 414.60594999999995 42.114820143884906 415.19129999999996 43.19999999999999 416.36199999999997 43.19999999999999 C 417.9907999999999 43.19999999999999 418.80519999999996 43.19999999999999 420.43399999999997 43.19999999999999 C 422.6057333333333 43.19999999999999 423.6916 43.19999999999999 425.86333333333334 43.19999999999999 C 428.3235000000001 43.19999999999999 429.55358333333334 43.19999999999999 432.01374999999996 43.19999999999999 C 435.67855 43.19999999999999 437.51095000000004 41.400000000000006 441.17575 41.400000000000006 C 444.8235833333333 41.400000000000006 446.6474999999999 41.400000000000006 450.29533333333325 41.400000000000006 C 454.36733333333325 41.400000000000006 456.4033333333333 39.599999999999994 460.4753333333333 39.599999999999994 C 463.5972 39.599999999999994 468.28 39.599999999999994 468.28 39.599999999999994" stroke="#7cb5ec" stroke-width="2"  stroke-linejoin="round" stroke-linecap="round"></path></g><g class="highcharts-markers" visibility="visible"  transform="translate(81,53) scale(1 1)" clip-path="none"></g></g><text x="300" text-anchor="middle" class="highcharts-title"  style="color:#333333;font-size:18px;fill:#333333;width:536px;" y="24"><tspan>LC-MS Map Alignments to OEMMA121101_40b</tspan></text><g class="highcharts-legend"  transform="translate(56,338)"><g ><g><g class="highcharts-legend-item"  transform="translate(8,3)"><path fill="none" d="M 0 11 L 16 11" stroke="#7cb5ec" stroke-width="2"></path><path fill="#7cb5ec" d="M 8 7 C 13.328 7 13.328 15 8 15 C 2.6719999999999997 15 2.6719999999999997 7 8 7 Z"></path><text x="21" style="color:#333333;font-size:12px;font-weight:bold;cursor:pointer;fill:#333333;" text-anchor="start"  y="15">OEMMA121101_36b</text></g><g class="highcharts-legend-item"  transform="translate(171.84375,3)"><path fill="none" d="M 0 11 L 16 11" stroke="#434348" stroke-width="2"></path><path fill="#434348" d="M 8 7 L 12 11 8 15 4 11 Z"></path><text x="21" y="15" style="color:#333333;font-size:12px;font-weight:bold;cursor:pointer;fill:#333333;" text-anchor="start" >OEMMA121101_38b</text></g><g class="highcharts-legend-item"  transform="translate(335.6875,3)"><path fill="none" d="M 0 11 L 16 11" stroke="#90ed7d" stroke-width="2"></path><path fill="#90ed7d" d="M 4 7 L 12 7 12 15 4 15 Z"></path><text x="21" y="15" style="color:#333333;font-size:12px;font-weight:bold;cursor:pointer;fill:#333333;" text-anchor="start" >OEMMA121101_61b</text></g><g class="highcharts-legend-item"  transform="translate(8,21)"><path fill="none" d="M 0 11 L 16 11" stroke="#f7a35c" stroke-width="2"></path><path fill="#f7a35c" d="M 8 7 L 12 15 4 15 Z"></path><text x="21" y="15" style="color:#333333;font-size:12px;font-weight:bold;cursor:pointer;fill:#333333;" text-anchor="start" >OEMMA121101_63b</text></g><g class="highcharts-legend-item"  transform="translate(171.84375,21)"><path fill="none" d="M 0 11 L 16 11" stroke="#8085e9" stroke-width="2"></path><path fill="#8085e9" d="M 4 7 L 12 7 8 15 Z"></path><text x="21" y="15" style="color:#333333;font-size:12px;font-weight:bold;cursor:pointer;fill:#333333;" text-anchor="start" >OEMMA121101_65b</text></g></g></g></g><g class="highcharts-axis-labels highcharts-xaxis-labels" ><text x="81" style="color:#606060;cursor:default;font-size:11px;fill:#606060;width:63px;text-overflow:clip;" text-anchor="middle" transform="translate(0,0)" y="297" opacity="1">0</text><text x="165.83333333333331" style="color:#606060;cursor:default;font-size:11px;fill:#606060;width:63px;text-overflow:clip;" text-anchor="middle" transform="translate(0,0)" y="297" opacity="1">20</text><text x="250.66666666666666" style="color:#606060;cursor:default;font-size:11px;fill:#606060;width:63px;text-overflow:clip;" text-anchor="middle" transform="translate(0,0)" y="297" opacity="1">40</text><text x="335.5" style="color:#606060;cursor:default;font-size:11px;fill:#606060;width:63px;text-overflow:clip;" text-anchor="middle" transform="translate(0,0)" y="297" opacity="1">60</text><text x="420.3333333333333" style="color:#606060;cursor:default;font-size:11px;fill:#606060;width:63px;text-overflow:clip;" text-anchor="middle" transform="translate(0,0)" y="297" opacity="1">80</text><text x="505.16666666666663" style="color:#606060;cursor:default;font-size:11px;fill:#606060;width:63px;text-overflow:clip;" text-anchor="middle" transform="translate(0,0)" y="297" opacity="1">100</text><text x="590" style="color:#606060;cursor:default;font-size:11px;fill:#606060;width:63px;text-overflow:clip;" text-anchor="end" transform="translate(0,0)" y="297" opacity="1">120</text></g><g class="highcharts-axis-labels highcharts-yaxis-labels" ><text x="66" style="color:#606060;cursor:default;font-size:11px;fill:#606060;width:188px;text-overflow:clip;" text-anchor="end" transform="translate(0,0)" y="281" opacity="1">-100</text><text x="66" style="color:#606060;cursor:default;font-size:11px;fill:#606060;width:188px;text-overflow:clip;" text-anchor="end" transform="translate(0,0)" y="236" opacity="1">-75</text><text x="66" style="color:#606060;cursor:default;font-size:11px;fill:#606060;width:188px;text-overflow:clip;" text-anchor="end" transform="translate(0,0)" y="191" opacity="1">-50</text><text x="66" style="color:#606060;cursor:default;font-size:11px;fill:#606060;width:188px;text-overflow:clip;" text-anchor="end" transform="translate(0,0)" y="146" opacity="1">-25</text><text x="66" style="color:#606060;cursor:default;font-size:11px;fill:#606060;width:188px;text-overflow:clip;" text-anchor="end" transform="translate(0,0)" y="101" opacity="1">0</text><text x="66" style="color:#606060;cursor:default;font-size:11px;fill:#606060;width:188px;text-overflow:clip;" text-anchor="end" transform="translate(0,0)" y="56" opacity="1">25</text></g><g class="highcharts-tooltip"  style="cursor:default;padding:0;white-space:nowrap;" transform="translate(0,-9999)"><path fill="none" d="M 3 0 L 13 0 C 16 0 16 0 16 3 L 16 13 C 16 16 16 16 13 16 L 3 16 C 0 16 0 16 0 13 L 0 3 C 0 0 0 0 3 0"  stroke="black" stroke-opacity="0.049999999999999996" stroke-width="5" transform="translate(1, 1)"></path><path fill="none" d="M 3 0 L 13 0 C 16 0 16 0 16 3 L 16 13 C 16 16 16 16 13 16 L 3 16 C 0 16 0 16 0 13 L 0 3 C 0 0 0 0 3 0"  stroke="black" stroke-opacity="0.09999999999999999" stroke-width="3" transform="translate(1, 1)"></path><path fill="none" d="M 3 0 L 13 0 C 16 0 16 0 16 3 L 16 13 C 16 16 16 16 13 16 L 3 16 C 0 16 0 16 0 13 L 0 3 C 0 0 0 0 3 0"  stroke="black" stroke-opacity="0.15" stroke-width="1" transform="translate(1, 1)"></path><path fill="rgb(249, 249, 249)" fill-opacity=" .85" d="M 3 0 L 13 0 C 16 0 16 0 16 3 L 16 13 C 16 16 16 16 13 16 L 3 16 C 0 16 0 16 0 13 L 0 3 C 0 0 0 0 3 0"></path><text x="8"  style="font-size:12px;color:#333333;fill:#333333;" y="20"></text></g><text x="590" text-anchor="end"  style="cursor:pointer;color:#909090;font-size:9px;fill:#909090;" y="395">Highcharts.com</text></svg>